<svg viewBox="0 0 846.66 846.66" xml:space="preserve" xmlns="http://www.w3.org/2000/svg" shape-rendering="geometricPrecision" text-rendering="geometricPrecision" image-rendering="optimizeQuality" fill-rule="evenodd" clip-rule="evenodd"><path d="M289.88 567.36c40.82 22.66 70.18 62.16 79.71 107.89h181.89V159.46c0-11.42 9.26-20.68 20.68-20.68h107.92c9.3-34.74 40.9-59.04 77-59.04 44.02 0 79.72 35.7 79.72 79.72 0 44.02-35.7 79.71-79.72 79.71-36.1 0-67.7-24.29-77-59.04h-87.25v156.2h87.25c9.3-34.74 40.9-59.04 77-59.04 44.02 0 79.72 35.7 79.72 79.72 0 44.02-35.7 79.72-79.72 79.72-36.1 0-67.7-24.3-77-59.05h-87.25v161.91h87.25c9.3-34.75 40.9-59.04 77-59.04 44.02 0 79.72 35.7 79.72 79.72 0 44.02-35.7 79.71-79.72 79.71-36.1 0-67.7-24.29-77-59.04h-87.25v114.98c0 11.42-9.26 20.68-20.67 20.68H372.94v29.64c0 11.42-9.26 20.68-20.68 20.68H30.54c-11.42 0-20.67-9.26-20.67-20.68v-38.47c0-58.44 32.13-112.13 83.05-140.41-9.73-17-14.86-36.29-14.86-55.9v-39.25c0-66.52 48.66-112.62 113.34-112.62s113.35 46.1 113.35 112.62v39.25c0 19.47-5.2 39.02-14.87 55.9zm467.2-45.46c-21.19 0-38.36 17.18-38.36 38.37 0 21.19 17.17 38.36 38.36 38.36 21.19 0 38.36-17.17 38.36-38.36 0-21.19-17.17-38.37-38.36-38.37zm0-203.25c-21.19 0-38.36 17.17-38.36 38.36 0 21.19 17.17 38.37 38.36 38.37 21.19 0 38.36-17.18 38.36-38.37 0-21.19-17.17-38.36-38.36-38.36zm0-197.56c-21.19 0-38.36 17.18-38.36 38.37 0 21.18 17.17 38.36 38.36 38.36 21.19 0 38.36-17.18 38.36-38.36 0-21.19-17.17-38.37-38.36-38.37zM251.86 595.28c-14.38-4.55-19.3-22.84-8.62-33.95 12.98-13.48 20.16-31.16 20.16-49.87v-39.25c0-43.2-30.22-71.27-72-71.27s-71.99 28.07-71.99 71.27v39.25c0 18.66 7.21 36.43 20.15 49.87 10.28 10.7 6.24 28.77-8.08 33.76-47.85 16.68-80.26 61.97-80.26 112.68v17.8h280.37c0-9.27.35-18.96-.45-28.17-4.04-46.47-35.3-86.55-79.28-102.12z" fill="#b3b3b3" fill-rule="nonzero" class="fill-000000"></path></svg>