<svg viewBox="0 0 48 48" xml:space="preserve" xmlns="http://www.w3.org/2000/svg"><g fill="#b3b3b3" class="fill-241f20"><path d="M16.601 18.578c.106 0 .21-.012.316-.016a12.869 12.869 0 0 1-.145-1.822c0-5.098 3-9.484 7.324-11.523C22.551 2.691 19.777 1 16.601 1a8.789 8.789 0 0 0 0 17.578z"></path><circle cx="29.476" cy="16.74" r="9.763"></circle><path d="M37.993 26.365a12.8 12.8 0 0 1-8.518 3.241c-3.256 0-6.22-1.219-8.487-3.212-5.913 3.227-9.953 9.7-9.953 17.165 0 1.176.105 2.323.297 3.44h36.37c.193-1.116.298-2.264.298-3.439 0-7.488-4.063-13.978-10.007-17.195zM19.162 24.205a12.782 12.782 0 0 1-1.542-2.881 11.528 11.528 0 0 1-8.661-2.844C3.637 21.385 0 27.213 0 33.934c0 1.058.095 2.092.267 3.098h9.062a19.718 19.718 0 0 1 9.833-12.827z"></path></g></svg>