<svg width="16" height="17" viewBox="0 0 16 17" fill="none" xmlns="http://www.w3.org/2000/svg">
<path id="Vector" d="M16 8.37997C15.9998 6.85118 15.5615 5.35448 14.737 4.06704C13.9126 2.7796 12.7365 1.75535 11.3481 1.11553C9.95962 0.47572 8.4169 0.247143 6.90257 0.45686C5.38823 0.666578 3.9657 1.30581 2.80337 2.29888C1.64104 3.29194 0.787596 4.59726 0.344069 6.0603C-0.099457 7.52333 -0.114491 9.08282 0.300748 10.5541C0.715987 12.0254 1.54411 13.347 2.68708 14.3623C3.83004 15.3776 5.23999 16.0441 6.75 16.283V10.693H4.719V8.37997H6.75V6.61697C6.75 4.61197 7.944 3.50497 9.772 3.50497C10.647 3.50497 11.562 3.66097 11.562 3.66097V5.62997H10.554C9.56 5.62997 9.25 6.24697 9.25 6.87997V8.37997H11.469L11.114 10.693H9.25V16.283C11.1317 15.9849 12.8454 15.0252 14.0827 13.5765C15.32 12.1278 15.9999 10.2852 16 8.37997Z" fill="white"/>
</svg>
