<svg width="20" height="21" viewBox="0 0 20 21" fill="none" xmlns="http://www.w3.org/2000/svg">
<path id="Vector" d="M11.5 0.514961C11.0439 0.251656 10.5266 0.113037 10 0.113037C9.47339 0.113037 8.95606 0.251656 8.5 0.514961L1 4.84496C0.695969 5.02049 0.443498 5.27296 0.267962 5.57699C0.0924258 5.88102 8.91844e-06 6.2259 0 6.57696V20C0 20.2652 0.105357 20.5195 0.292893 20.7071C0.48043 20.8946 0.734784 21 1 21H7C7.26522 21 7.51957 20.8946 7.70711 20.7071C7.89464 20.5195 8 20.2652 8 20V14H12V20C12 20.2652 12.1054 20.5195 12.2929 20.7071C12.4804 20.8946 12.7348 21 13 21H19C19.2652 21 19.5196 20.8946 19.7071 20.7071C19.8946 20.5195 20 20.2652 20 20V6.57696C20 6.2259 19.9076 5.88102 19.732 5.57699C19.5565 5.27296 19.304 5.02049 19 4.84496L11.5 0.514961Z" fill="white"/>
</svg>
