<svg width="20" height="21" viewBox="0 0 20 21" fill="none" xmlns="http://www.w3.org/2000/svg">
<path id="Vector" d="M10.5 2.247C10.348 2.15923 10.1755 2.11302 10 2.11302C9.82446 2.11302 9.65202 2.15923 9.5 2.247L2 6.577V19H6.5V13C6.5 12.7348 6.60536 12.4804 6.79289 12.2929C6.98043 12.1054 7.23478 12 7.5 12H12.5C12.7652 12 13.0196 12.1054 13.2071 12.2929C13.3946 12.4804 13.5 12.7348 13.5 13V19H18V6.577L10.5 2.247ZM8.5 0.514999C8.95606 0.251694 9.47339 0.113075 10 0.113075C10.5266 0.113075 11.0439 0.251694 11.5 0.514999L19 4.845C19.304 5.02053 19.5565 5.273 19.732 5.57703C19.9076 5.88106 20 6.22593 20 6.577V20C20 20.2652 19.8946 20.5196 19.7071 20.7071C19.5196 20.8946 19.2652 21 19 21H12.5C12.2348 21 11.9804 20.8946 11.7929 20.7071C11.6054 20.5196 11.5 20.2652 11.5 20V14H8.5V20C8.5 20.2652 8.39464 20.5196 8.20711 20.7071C8.01957 20.8946 7.76522 21 7.5 21H1C0.734784 21 0.48043 20.8946 0.292893 20.7071C0.105357 20.5196 0 20.2652 0 20V6.577C8.91844e-06 6.22593 0.0924258 5.88106 0.267962 5.57703C0.443498 5.273 0.695969 5.02053 1 4.845L8.5 0.514999Z" fill="#B3B3B3"/>
</svg>
