<svg width="16" height="17" viewBox="0 0 16 17" fill="none" xmlns="http://www.w3.org/2000/svg">
<g id="Img" clip-path="url(#clip0_1_144)">
<path id="Vector" d="M8 1.82005C10.136 1.82005 10.389 1.82905 11.233 1.86705C12.013 1.90305 12.436 2.03305 12.718 2.14305C13.066 2.27105 13.381 2.47505 13.639 2.74105C13.905 2.99905 14.109 3.31405 14.238 3.66205C14.348 3.94405 14.478 4.36805 14.513 5.14705C14.552 5.99105 14.56 6.24405 14.56 8.38005C14.56 10.5161 14.552 10.7691 14.513 11.6121C14.478 12.3921 14.347 12.8161 14.238 13.0981C14.1047 13.4428 13.9007 13.756 13.6393 14.0174C13.3779 14.2788 13.0648 14.4827 12.72 14.6161C12.438 14.7261 12.014 14.8561 11.234 14.8911C10.391 14.9301 10.137 14.9381 8.001 14.9381C5.865 14.9381 5.611 14.9301 4.769 14.8911C3.989 14.8561 3.565 14.7261 3.283 14.6161C2.93503 14.4878 2.62029 14.2831 2.362 14.0171C2.09603 13.759 1.89134 13.4447 1.763 13.0971C1.653 12.8151 1.523 12.3911 1.488 11.6111C1.45 10.7671 1.441 10.5151 1.441 8.37905C1.441 6.24305 1.45 5.98905 1.488 5.14605C1.524 4.36605 1.654 3.94305 1.763 3.66105C1.892 3.31305 2.096 2.99805 2.362 2.74005C2.62028 2.47443 2.93459 2.26979 3.282 2.14105C3.565 2.03105 3.989 1.90105 4.769 1.86605C5.612 1.82805 5.865 1.81905 8.001 1.81905L8 1.82005ZM8.001 0.378052C5.829 0.378052 5.556 0.388052 4.703 0.426052C3.849 0.466052 3.268 0.602052 2.76 0.799052C2.22625 1.00019 1.74272 1.31515 1.343 1.72205C0.936 2.12205 0.621 2.60505 0.42 3.13905C0.222 3.64705 0.087 4.22905 0.048 5.08105C0.01 5.93205 0 6.20605 0 8.38005C0 10.5521 0.01 10.8251 0.048 11.6781C0.088 12.5311 0.222 13.1111 0.42 13.6191C0.62 14.1531 0.936 14.6361 1.343 15.0361C1.743 15.4431 2.226 15.7581 2.76 15.9591C3.268 16.1571 3.85 16.2921 4.702 16.3311C5.554 16.3701 5.828 16.3791 8.001 16.3791C10.173 16.3791 10.446 16.3691 11.299 16.3311C12.152 16.2911 12.732 16.1571 13.239 15.9591C13.7706 15.7537 14.2534 15.4395 14.6564 15.0365C15.0594 14.6335 15.3737 14.1507 15.579 13.6191C15.778 13.1111 15.913 12.5291 15.952 11.6771C15.991 10.8261 16 10.5521 16 8.37905C16 6.20605 15.99 5.93405 15.952 5.08105C15.912 4.22805 15.778 3.64805 15.58 3.14105C15.3791 2.60689 15.0641 2.12298 14.657 1.72305C14.2573 1.31615 13.7737 1.00119 13.24 0.800052C12.732 0.603052 12.15 0.467052 11.298 0.429052C10.447 0.388052 10.173 0.379052 8 0.379052L8.001 0.378052Z" fill="white"/>
<path id="Vector_2" d="M8.00003 4.27205C6.91052 4.27205 5.86563 4.70485 5.09523 5.47525C4.32483 6.24565 3.89203 7.29054 3.89203 8.38005C3.89203 9.46956 4.32483 10.5144 5.09523 11.2848C5.86563 12.0552 6.91052 12.488 8.00003 12.488C9.08954 12.488 10.1344 12.0552 10.9048 11.2848C11.6752 10.5144 12.108 9.46956 12.108 8.38005C12.108 7.29054 11.6752 6.24565 10.9048 5.47525C10.1344 4.70485 9.08954 4.27205 8.00003 4.27205ZM8.00003 11.047C7.64538 11.0539 7.29293 10.99 6.96328 10.859C6.63363 10.7281 6.3334 10.5327 6.08017 10.2843C5.82693 10.0359 5.62577 9.73952 5.48844 9.41247C5.35111 9.08541 5.28038 8.73426 5.28038 8.37955C5.28038 8.02483 5.35111 7.67368 5.48844 7.34663C5.62577 7.01958 5.82693 6.72319 6.08017 6.47481C6.3334 6.22643 6.63363 6.03104 6.96328 5.90007C7.29293 5.7691 7.64538 5.70518 8.00003 5.71205C8.69855 5.72557 9.3639 6.01256 9.85311 6.51134C10.3423 7.01012 10.6164 7.6809 10.6164 8.37955C10.6164 9.0782 10.3423 9.74898 9.85311 10.2478C9.3639 10.7465 8.69855 11.0335 8.00003 11.047ZM12.27 5.06905C12.5246 5.06905 12.7688 4.96791 12.9489 4.78787C13.1289 4.60784 13.23 4.36366 13.23 4.10905C13.23 3.85444 13.1289 3.61026 12.9489 3.43023C12.7688 3.25019 12.5246 3.14905 12.27 3.14905C12.0154 3.14905 11.7712 3.25019 11.5912 3.43023C11.4112 3.61026 11.31 3.85444 11.31 4.10905C11.31 4.36366 11.4112 4.60784 11.5912 4.78787C11.7712 4.96791 12.0154 5.06905 12.27 5.06905Z" fill="white"/>
</g>
<defs>
<clipPath id="clip0_1_144">
<rect width="16" height="16" fill="white" transform="translate(0 0.380005)"/>
</clipPath>
</defs>
</svg>
