<svg width="16" height="17" viewBox="0 0 16 17" fill="none" xmlns="http://www.w3.org/2000/svg">
<path id="Vector" d="M8.152 16.22H8C5.88495 16.1999 3.86393 15.343 2.37899 13.8367C0.894047 12.3305 0.0660473 10.2975 0.0760944 8.18234C0.0861415 6.06721 0.933417 4.04214 2.4326 2.55006C3.93178 1.05798 5.96086 0.220337 8.076 0.220337C10.1912 0.220337 12.2202 1.05798 13.7194 2.55006C15.2186 4.04214 16.0659 6.06721 16.0759 8.18234C16.086 10.2975 15.258 12.3305 13.773 13.8367C12.2881 15.343 10.2671 16.1999 8.152 16.22ZM7.742 2.01798C7.516 2.29098 7.279 2.73098 7.065 3.34098C6.696 4.39598 6.439 5.83698 6.378 7.46998H9.925C9.865 5.83698 9.607 4.39598 9.238 3.34098C9.025 2.73098 8.788 2.29098 8.562 2.01798C8.368 1.78298 8.236 1.73298 8.177 1.72198H8.133C8.078 1.72898 7.943 1.77398 7.742 2.01798ZM4.877 7.46998C4.939 5.69898 5.217 4.08398 5.65 2.84598C5.749 2.56198 5.858 2.29198 5.979 2.03998C4.79833 2.42708 3.75317 3.14414 2.96707 4.10638C2.18098 5.06862 1.68682 6.23581 1.543 7.46998H4.877ZM1.543 8.96998C1.68682 10.2041 2.18098 11.3713 2.96707 12.3336C3.75317 13.2958 4.79833 14.0129 5.979 14.4C5.8544 14.1375 5.74424 13.8685 5.649 13.594C5.216 12.356 4.939 10.741 4.877 8.96998H1.543ZM6.378 8.96998C6.439 10.603 6.696 12.044 7.065 13.099C7.279 13.709 7.516 14.149 7.742 14.422C7.944 14.666 8.078 14.712 8.133 14.719L8.177 14.718C8.237 14.708 8.367 14.657 8.562 14.422C8.788 14.149 9.025 13.709 9.238 13.099C9.608 12.044 9.864 10.603 9.925 8.96998H6.378ZM11.426 8.96998C11.365 10.741 11.087 12.356 10.654 13.594C10.572 13.829 10.483 14.054 10.386 14.268C11.4802 13.8355 12.4367 13.1144 13.1536 12.1815C13.8704 11.2485 14.3209 10.1386 14.457 8.96998H11.427H11.426ZM14.457 7.46998C14.3208 6.30134 13.8703 5.1915 13.1534 4.25857C12.4366 3.32564 11.4802 2.60452 10.386 2.17198C10.483 2.38598 10.572 2.61198 10.654 2.84598C11.087 4.08398 11.365 5.69898 11.426 7.46998H14.457Z" fill="white"/>
</svg>
