<svg width="16" height="16" viewBox="0 0 16 16" fill="none" xmlns="http://www.w3.org/2000/svg">
<path id="Vector" d="M1.91001 1.99498C2.76443 1.18959 3.89543 0.742943 5.0696 0.747223C6.24377 0.751503 7.37148 1.20638 8.22001 2.01798C8.7305 1.53219 9.34613 1.17067 10.0191 0.961504C10.692 0.752341 11.4041 0.701173 12.1 0.81198H12.102C13.0288 0.963677 13.8872 1.39431 14.5629 2.04644C15.2387 2.69857 15.6995 3.54121 15.884 4.46198V4.46498C16.0172 5.13982 15.9954 5.8361 15.8203 6.50129C15.6451 7.16648 15.3212 7.78322 14.873 8.30498L9.57001 14.624C9.32043 14.9203 8.98028 15.1263 8.60203 15.2102C8.22378 15.294 7.82844 15.2511 7.47701 15.088C7.24399 14.9796 7.0375 14.8216 6.87201 14.625L1.56801 8.30398C0.80428 7.40956 0.413727 6.25571 0.477204 5.08131C0.54068 3.9069 1.05333 2.80187 1.90901 1.99498H1.91001ZM5.06801 2.24698C4.47756 2.24398 3.89868 2.41065 3.40023 2.72717C2.90178 3.04368 2.50474 3.49672 2.25634 4.03238C2.00794 4.56805 1.91865 5.16379 1.99907 5.74874C2.0795 6.33369 2.32626 6.88323 2.71001 7.33198L2.71501 7.33698L8.02001 13.659C8.05726 13.7028 8.1078 13.7332 8.16393 13.7457C8.22006 13.7581 8.27873 13.7519 8.33101 13.728C8.36569 13.7118 8.39641 13.6883 8.42101 13.659L13.733 7.32898C14.0339 6.97963 14.2514 6.56649 14.3692 6.12076C14.487 5.67502 14.502 5.20835 14.413 4.75598C14.2883 4.1349 13.9774 3.56654 13.5217 3.12654C13.066 2.68654 12.4871 2.39578 11.862 2.29298C11.3932 2.21844 10.9135 2.2533 10.4604 2.39486C10.0073 2.53641 9.59302 2.78082 9.25001 3.10898L9.24301 3.11598C8.96525 3.37444 8.59992 3.51812 8.22051 3.51812C7.8411 3.51812 7.47577 3.37444 7.19801 3.11598L7.18901 3.10798C6.61876 2.55933 5.85933 2.25105 5.06801 2.24698Z" fill="white" fill-opacity="0.698"/>
</svg>
