<svg width="17" height="17" viewBox="0 0 17 17" fill="none" xmlns="http://www.w3.org/2000/svg">
<path id="Vector" d="M13.816 3.074C13.4474 2.70523 12.9841 2.44543 12.4772 2.32324C11.9703 2.20105 11.4395 2.22123 10.9434 2.38155C10.4472 2.54187 10.005 2.83609 9.6654 3.23178C9.32584 3.62747 9.10215 4.10926 9.01901 4.624L12.266 7.871C12.7808 7.78785 13.2625 7.56417 13.6582 7.22461C14.0539 6.88505 14.3481 6.44281 14.5085 5.94666C14.6688 5.4505 14.689 4.91971 14.5668 4.41281C14.4446 3.90592 14.1848 3.44262 13.816 3.074ZM10.89 8.618L8.27101 5.998C7.22397 7.19029 6.17697 8.38262 5.13001 9.575L2.45501 12.62C2.2402 12.8657 2.12679 13.1839 2.13773 13.5102C2.14868 13.8364 2.28316 14.1462 2.51396 14.377C2.74476 14.6078 3.05464 14.7423 3.38085 14.7533C3.70707 14.7642 4.02526 14.6508 4.27101 14.436L7.33101 11.748L10.891 8.619L10.89 8.618ZM7.51001 4.594C7.60075 3.78355 7.91846 3.0152 8.42659 2.37734C8.93471 1.73948 9.6126 1.25805 10.3822 0.988433C11.1519 0.718818 11.982 0.671979 12.7771 0.853307C13.5722 1.03463 14.3 1.43676 14.8766 2.01341C15.4532 2.59006 15.8554 3.3178 16.0367 4.11289C16.218 4.90798 16.1712 5.73812 15.9016 6.50776C15.632 7.27741 15.1505 7.9553 14.5127 8.46342C13.8748 8.97155 13.1065 9.28926 12.296 9.38L8.32201 12.873L5.26201 15.562C4.73002 16.0286 4.04043 16.2754 3.33316 16.2523C2.62588 16.2292 1.95389 15.9379 1.4535 15.4375C0.953116 14.9371 0.661815 14.2651 0.638696 13.5579C0.615578 12.8506 0.862373 12.161 1.32901 11.629L4.00501 8.584L7.51001 4.594Z" fill="#A7A7A7"/>
</svg>
