<svg viewBox="0 0 24 24" xml:space="preserve" xmlns="http://www.w3.org/2000/svg" enable-background="new 0 0 24 24"><g id="Layer_2"><path d="M8.7 14.2c-.7.5-1.6.8-2.5.8H4c-.6 0-1 .4-1 1s.4 1 1 1h2.2c1.3 0 2.6-.4 3.7-1.2.4-.3.5-1 .2-1.4-.4-.5-1-.6-1.4-.2zM13 10.7c.3 0 .6-.1.8-.3.7-.9 1.8-1.4 3-1.4h.8l-.3.3c-.4.4-.4 1 0 1.4.2.2.5.3.7.3s.5-.1.7-.3l2-2c.1-.1.2-.2.2-.3.1-.2.1-.5 0-.8-.1-.1-.1-.2-.2-.3l-2-2c-.4-.4-1-.4-1.4 0s-.4 1 0 1.4l.3.3h-.8c-1.8 0-3.4.8-4.6 2.1-.4.4-.3 1 .1 1.4.2.2.5.2.7.2z" fill="#b3b3b3" class="fill-000000"></path><path d="m20.7 15.3-2-2c-.4-.4-1-.4-1.4 0s-.4 1 0 1.4l.3.3h-1.5c-1.6 0-2.9-.9-3.6-2.3l-1.2-2.4c-1-2-3.1-3.3-5.4-3.3H4c-.6 0-1 .4-1 1s.4 1 1 1h1.9c1.6 0 2.9.9 3.6 2.3l1.2 2.4c1 2.1 3.1 3.4 5.4 3.4h1.5l-.3.3c-.4.4-.4 1 0 1.4.2.2.5.3.7.3s.5-.1.7-.3l2-2c.4-.5.4-1.1 0-1.5z" fill="#b3b3b3" class="fill-000000"></path></g></svg>