<svg viewBox="0 0 32 32" xmlns="http://www.w3.org/2000/svg"><g data-name="Layer 35"><path d="M18 29a1 1 0 0 1-.57-.18l-10-7A1 1 0 0 1 7 21V11a1 1 0 0 1 .43-.82l10-7a1 1 0 0 1 1-.07A1 1 0 0 1 19 4v24a1 1 0 0 1-.54.89A1 1 0 0 1 18 29Zm-9-8.52 8 5.6V5.92l-8 5.6Z" fill="#b3b3b3" class="fill-101820"></path><path d="M8 22H4a3 3 0 0 1-3-3v-6a3 3 0 0 1 3-3h4a1 1 0 0 1 1 1v10a1 1 0 0 1-1 1ZM4 12a1 1 0 0 0-1 1v6a1 1 0 0 0 1 1h3v-8Z" fill="#b3b3b3" class="fill-101820"></path><path transform="rotate(-45 25.758 16)" d="M24.76 10h2v12h-2z" fill="#b3b3b3" class="fill-101820"></path><path transform="rotate(-45 25.758 16)" d="M19.76 15h12v2h-12z" fill="#b3b3b3" class="fill-101820"></path></g></svg>