<svg width="10" height="16" viewBox="0 0 10 16" fill="none" xmlns="http://www.w3.org/2000/svg">
<path id="Vector" d="M0.970001 0.46995C0.82955 0.610576 0.750661 0.8012 0.750661 0.99995C0.750661 1.1987 0.82955 1.38933 0.970001 1.52995L7.44 7.99995L0.970001 14.47C0.896314 14.5386 0.837212 14.6214 0.79622 14.7134C0.755228 14.8054 0.733186 14.9047 0.731409 15.0054C0.729633 15.1061 0.748157 15.2062 0.785878 15.2995C0.823599 15.3929 0.879744 15.4778 0.950962 15.549C1.02218 15.6202 1.10701 15.6764 1.2004 15.7141C1.29379 15.7518 1.39382 15.7703 1.49452 15.7685C1.59523 15.7668 1.69454 15.7447 1.78654 15.7037C1.87854 15.6627 1.96134 15.6036 2.03 15.53L9.56 7.99995L2.03 0.46995C1.88938 0.3295 1.69875 0.25061 1.5 0.25061C1.30125 0.25061 1.11063 0.3295 0.970001 0.46995Z" fill="white"/>
</svg>
