<svg width="17" height="16" viewBox="0 0 17 16" fill="none" xmlns="http://www.w3.org/2000/svg">
<g id="Img">
<path id="Vector" d="M11.586 8L6.39001 5V11L11.586 8Z" fill="#A7A7A7"/>
<path id="Vector_2" d="M15.392 1.75C15.392 1.28587 15.2076 0.840752 14.8795 0.512563C14.5513 0.184374 14.1061 0 13.642 0H3.14201C2.67788 0 2.23277 0.184374 1.90458 0.512563C1.57639 0.840752 1.39201 1.28587 1.39201 1.75V14.25C1.39201 15.216 2.17501 16 3.14201 16H13.642C14.1061 16 14.5513 15.8156 14.8795 15.4874C15.2076 15.1592 15.392 14.7141 15.392 14.25V1.75ZM13.642 1.5C13.7083 1.5 13.7719 1.52634 13.8188 1.57322C13.8657 1.62011 13.892 1.6837 13.892 1.75V14.25C13.892 14.3163 13.8657 14.3799 13.8188 14.4268C13.7719 14.4737 13.7083 14.5 13.642 14.5H3.14201C3.07571 14.5 3.01212 14.4737 2.96524 14.4268C2.91835 14.3799 2.89201 14.3163 2.89201 14.25V1.75C2.89201 1.6837 2.91835 1.62011 2.96524 1.57322C3.01212 1.52634 3.07571 1.5 3.14201 1.5H13.642Z" fill="#A7A7A7"/>
</g>
</svg>
