<svg width="17" height="17" viewBox="0 0 17 17" fill="none" xmlns="http://www.w3.org/2000/svg">
<g id="Img" clip-path="url(#clip0_1_57)">
<path id="Vector" d="M16.39 2.95C16.39 2.15 15.74 1.5 14.94 1.5H1.84001C1.04001 1.5 0.390015 2.15 0.390015 2.95V14.05C0.390015 14.85 1.04001 15.5 1.84001 15.5H7.39701V14H1.89001V3H14.89V7.5H16.39V2.95Z" fill="#A7A7A7"/>
<path id="Vector_2" d="M15.64 9.507C15.8389 9.507 16.0297 9.58602 16.1704 9.72667C16.311 9.86733 16.39 10.0581 16.39 10.257V14.75C16.39 14.9489 16.311 15.1397 16.1704 15.2803C16.0297 15.421 15.8389 15.5 15.64 15.5H9.71503C9.51611 15.5 9.32535 15.421 9.1847 15.2803C9.04404 15.1397 8.96503 14.9489 8.96503 14.75V10.257C8.96503 10.0581 9.04404 9.86733 9.1847 9.72667C9.32535 9.58602 9.51611 9.507 9.71503 9.507H15.64Z" fill="#A7A7A7"/>
</g>
<defs>
<clipPath id="clip0_1_57">
<rect width="16" height="16" fill="white" transform="translate(0.390015 0.5)"/>
</clipPath>
</defs>
</svg>
