<svg width="10" height="16" viewBox="0 0 10 16" fill="none" xmlns="http://www.w3.org/2000/svg">
<path id="Vector" d="M9.03 0.46995C9.17045 0.610576 9.24934 0.8012 9.24934 0.99995C9.24934 1.1987 9.17045 1.38933 9.03 1.52995L2.56 7.99995L9.03 14.47C9.10369 14.5386 9.16279 14.6214 9.20378 14.7134C9.24477 14.8054 9.26682 14.9047 9.26859 15.0054C9.27037 15.1061 9.25185 15.2062 9.21412 15.2995C9.1764 15.3929 9.12026 15.4778 9.04904 15.549C8.97782 15.6202 8.89299 15.6764 8.7996 15.7141C8.70621 15.7518 8.60618 15.7703 8.50548 15.7685C8.40478 15.7668 8.30546 15.7447 8.21346 15.7037C8.12146 15.6627 8.03866 15.6036 7.97 15.53L0.440002 7.99995L7.97 0.46995C8.11063 0.3295 8.30125 0.25061 8.5 0.25061C8.69875 0.25061 8.88938 0.3295 9.03 0.46995Z" fill="white"/>
</svg>
