<svg width="15" height="15" viewBox="0 0 15 15" fill="none" xmlns="http://www.w3.org/2000/svg">
<path id="Vector" d="M14.39 14.5H0.390015V13H14.39V14.5ZM14.39 10H0.390015V8.5H14.39V10ZM0.390015 3C0.390015 2.33696 0.653407 1.70107 1.12225 1.23223C1.59109 0.763392 2.22697 0.5 2.89001 0.5H11.89C12.5531 0.5 13.1889 0.763392 13.6578 1.23223C14.1266 1.70107 14.39 2.33696 14.39 3C14.39 3.66304 14.1266 4.29893 13.6578 4.76777C13.1889 5.23661 12.5531 5.5 11.89 5.5H2.89001C2.22697 5.5 1.59109 5.23661 1.12225 4.76777C0.653407 4.29893 0.390015 3.66304 0.390015 3ZM2.89001 2C2.6248 2 2.37044 2.10536 2.18291 2.29289C1.99537 2.48043 1.89001 2.73478 1.89001 3C1.89001 3.26522 1.99537 3.51957 2.18291 3.70711C2.37044 3.89464 2.6248 4 2.89001 4H11.89C12.1552 4 12.4096 3.89464 12.5971 3.70711C12.7847 3.51957 12.89 3.26522 12.89 3C12.89 2.73478 12.7847 2.48043 12.5971 2.29289C12.4096 2.10536 12.1552 2 11.89 2H2.89001Z" fill="#A7A7A7"/>
</svg>
