<svg width="24" height="24" viewBox="0 0 24 24" fill="none" xmlns="http://www.w3.org/2000/svg">
<g id="Img">
<path id="Vector" d="M15.356 10.558C15.356 13.181 13.196 15.308 10.533 15.308C7.869 15.308 5.709 13.181 5.709 10.558C5.709 7.935 7.869 5.808 10.533 5.808C13.197 5.808 15.356 7.935 15.356 10.558Z" fill="white"/>
<path id="Vector_2" d="M1.126 10.558C1.126 5.418 5.352 1.278 10.533 1.278C15.713 1.278 19.94 5.418 19.94 10.558C19.942 12.6787 19.2079 14.7343 17.863 16.374L22.207 20.718C22.3892 20.9066 22.49 21.1592 22.4877 21.4214C22.4854 21.6836 22.3802 21.9344 22.1948 22.1198C22.0094 22.3052 21.7586 22.4104 21.4964 22.4127C21.2342 22.415 20.9816 22.3142 20.793 22.132L16.44 17.779C14.7616 19.1154 12.6785 19.8411 10.533 19.837C5.353 19.837 1.126 15.698 1.126 10.558ZM10.533 3.278C6.428 3.278 3.126 6.552 3.126 10.558C3.126 14.564 6.428 17.837 10.533 17.837C14.638 17.837 17.94 14.564 17.94 10.557C17.94 6.552 14.638 3.278 10.533 3.278Z" fill="white"/>
</g>
</svg>
