<svg width="22" height="22" viewBox="0 0 22 22" fill="none" xmlns="http://www.w3.org/2000/svg">
<path id="Vector" d="M9.53301 0.278954C4.35301 0.278954 0.126007 4.41895 0.126007 9.55795C0.126007 14.697 4.35201 18.837 9.53301 18.837C11.767 18.837 13.823 18.067 15.44 16.779L19.793 21.132C19.8853 21.2275 19.9956 21.3036 20.1176 21.3561C20.2396 21.4085 20.3708 21.4361 20.5036 21.4372C20.6364 21.4384 20.7681 21.4131 20.891 21.3628C21.0139 21.3125 21.1255 21.2382 21.2194 21.1444C21.3133 21.0505 21.3875 20.9388 21.4378 20.8159C21.4881 20.693 21.5134 20.5613 21.5123 20.4286C21.5111 20.2958 21.4835 20.1646 21.4311 20.0425C21.3787 19.9205 21.3025 19.8102 21.207 19.718L16.863 15.374C18.2079 13.7343 18.942 11.6786 18.94 9.55795C18.94 4.41795 14.714 0.277954 9.53301 0.277954V0.278954ZM2.12601 9.55795C2.12601 5.55195 5.42801 2.27795 9.53301 2.27795C13.638 2.27795 16.94 5.55195 16.94 9.55795C16.94 13.564 13.638 16.837 9.53301 16.837C5.42801 16.837 2.12601 13.565 2.12601 9.55795Z" fill="#B3B3B3"/>
</svg>
