<svg width="16" height="13" viewBox="0 0 16 13" fill="none" xmlns="http://www.w3.org/2000/svg">
<path id="Vector" d="M13.54 2.26899C14.1788 1.89398 14.6542 1.29367 14.873 0.58599C14.2781 0.942802 13.6252 1.19258 12.944 1.32399C12.6641 1.0227 12.325 0.782368 11.948 0.61799C11.5644 0.448566 11.1493 0.362013 10.73 0.36399C10.331 0.35788 9.935 0.433614 9.56642 0.586516C9.19783 0.739418 8.8645 0.966243 8.587 1.25299C8.29982 1.53163 8.07277 1.86616 7.91987 2.23594C7.76697 2.60571 7.69146 3.0029 7.698 3.40299C7.698 3.61499 7.725 3.84499 7.778 4.09399C6.56325 4.03688 5.37502 3.71902 4.294 3.16199C3.2261 2.61693 2.28499 1.853 1.532 0.91999C1.26057 1.38157 1.11795 1.90752 1.119 2.44299C1.119 2.96199 1.239 3.44299 1.48 3.88799C1.72 4.33299 2.05 4.69299 2.468 4.96799C1.98621 4.96043 1.51406 4.83182 1.095 4.59399V4.63399C1.095 5.35899 1.325 5.99899 1.785 6.55399C2.22355 7.09677 2.83922 7.46779 3.524 7.60199C3.07973 7.72769 2.61208 7.74688 2.159 7.65799C2.34387 8.25877 2.71643 8.78448 3.222 9.15799C3.73083 9.54593 4.35216 9.75761 4.992 9.76099C3.9228 10.6162 2.59112 11.0761 1.222 11.063C0.979 11.063 0.738 11.047 0.5 11.015C1.88259 11.9162 3.49967 12.3909 5.15 12.38C6.055 12.38 6.913 12.26 7.722 12.019C8.532 11.779 9.248 11.449 9.869 11.031C10.488 10.6155 11.0533 10.1252 11.552 9.57099C12.052 9.01499 12.463 8.41599 12.786 7.77299C13.1052 7.13983 13.3527 6.47304 13.524 5.78499C13.7236 4.99158 13.8065 4.17331 13.77 3.35599C14.361 2.92814 14.8716 2.39896 15.278 1.79299C14.718 2.04199 14.138 2.19999 13.54 2.26899Z" fill="white"/>
</svg>
