<svg width="14" height="15" viewBox="0 0 14 15" fill="none" xmlns="http://www.w3.org/2000/svg">
<path id="Vector" d="M10.131 0.35C10.2451 0.415867 10.3398 0.510621 10.4057 0.624727C10.4715 0.738833 10.5061 0.868266 10.506 1V14C10.5061 14.1317 10.4715 14.2611 10.4057 14.3752C10.3399 14.4893 10.2453 14.584 10.1312 14.6499C10.0172 14.7158 9.88785 14.7505 9.75615 14.7505C9.62446 14.7505 9.49508 14.7158 9.38103 14.65L2.45603 10.65C1.62223 10.1666 1.01405 9.37232 0.764755 8.4413C0.515459 7.51028 0.645373 6.51841 1.12603 5.683C1.44487 5.13004 1.90355 4.67067 2.45603 4.351L9.38103 0.351C9.49505 0.285174 9.62438 0.250519 9.75603 0.250519C9.88769 0.250519 10.017 0.284174 10.131 0.35ZM3.20703 5.65C2.883 5.83806 2.61405 6.10793 2.42709 6.4326C2.24013 6.75727 2.14173 7.12535 2.14173 7.5C2.14173 7.87465 2.24013 8.24273 2.42709 8.5674C2.61405 8.89207 2.883 9.16194 3.20703 9.35L9.00703 12.7V2.3L3.20703 5.65ZM11.89 9.94V5.06C12.3366 5.29217 12.711 5.64246 12.9722 6.07271C13.2335 6.50295 13.3716 6.99665 13.3716 7.5C13.3716 8.00335 13.2335 8.49705 12.9722 8.92729C12.711 9.35754 12.3366 9.70783 11.89 9.94Z" fill="white" fill-opacity="0.7"/>
</svg>
